<svg width="64" height="64" viewBox="0 0 64 64" fill="none" xmlns="http://www.w3.org/2000/svg">
<g clip-path="url(#clip0)">
<path d="M12.7999 6.3999H6.3999V12.7999H12.7999V6.3999Z" fill="black"/>
<path d="M44.8001 0V3.2H41.6001V6.4H44.8001V19.2H48.0001V22.4H44.8001V25.6H48.0001H51.2001V19.2H60.8001V22.4H64.0001V19.2V0H44.8001ZM60.8001 16H48.0001V3.2H60.8001V16Z" fill="black"/>
<path d="M57.5999 6.3999H51.2V12.7999H57.5999V6.3999Z" fill="black"/>
<path d="M12.7999 51.2H6.3999V57.5999H12.7999V51.2Z" fill="black"/>
<path d="M48.0001 44.8H44.8V48.0001H48.0001V44.8Z" fill="black"/>
<path d="M32.0001 60.8H28.8V64H32.0001V60.8Z" fill="black"/>
<path d="M35.2 48H32V51.2H35.2V48Z" fill="black"/>
<path d="M35.2 54.3999H32V57.5999H35.2V54.3999Z" fill="black"/>
<path d="M64 38.3999H60.8V41.5999H64V38.3999Z" fill="black"/>
<path d="M3.2 38.3999H0V41.5999H3.2V38.3999Z" fill="black"/>
<path d="M3.2 22.3999H0V25.5999H3.2V22.3999Z" fill="black"/>
<path d="M35.2 3.19995V6.39995H28.8V9.59995H38.4V6.39995V3.19995H35.2Z" fill="black"/>
<path d="M60.7999 25.6001V28.8001H54.3999V32.0001H44.7999V28.8001H41.5999V32.0001H35.1999V35.2001H44.7999V38.4001H38.3999H35.1999V35.2001H31.9999V38.4001H28.7999V35.2001H25.5999V38.4001H22.3999V41.6001H28.7999V44.8001H31.9999V41.6001H38.3999V44.8001H35.1999V48.0001H38.3999V54.4001H41.5999V57.6001H44.7999V54.4001H54.3999V48.0001H57.5999V44.8001H54.3999V38.4001H47.9999V35.2001H54.3999V38.4001H57.5999V35.2001H60.7999V32.0001H63.9999V28.8001V25.6001H60.7999ZM51.1999 41.6001V51.2001H41.5999V41.6001H51.1999Z" fill="black"/>
<path d="M41.6 19.2H38.4V22.4H35.2V25.6V28.7999H38.4V25.6H41.6V22.4H44.8V19.2H41.6Z" fill="black"/>
<path d="M41.6 60.8H35.2V64H41.6V60.8Z" fill="black"/>
<path d="M28.8001 3.19995H25.6001V6.39995H28.8001V3.19995Z" fill="black"/>
<path d="M54.3999 25.6001H51.2V28.8001H54.3999V25.6001Z" fill="black"/>
<path d="M57.5999 22.3999H54.3999V25.5999H57.5999V22.3999Z" fill="black"/>
<path d="M16 38.3999H12.8V41.5999H16V38.3999Z" fill="black"/>
<path d="M19.2 60.8001V48.0001H22.4V44.8001V41.6001H19.2V44.8001H9.6V41.6001H6.4H3.2V44.8001H0V64.0001H19.2H25.6V60.8001H19.2ZM16 60.8001H3.2V48.0001H16V60.8001Z" fill="black"/>
<path d="M22.4 19.2H19.2V22.4H22.4V19.2Z" fill="black"/>
<path d="M22.4 0H19.2H0V19.2H3.2V22.4H6.4V19.2H9.6V22.4H12.8V19.2H19.2V12.8H22.4V9.6H19.2V3.2H22.4H25.6V0H22.4ZM16 16H3.2V3.2H16V16Z" fill="black"/>
<path d="M41.5999 9.6001H38.3999V12.8001H41.5999V9.6001Z" fill="black"/>
<path d="M35.2 0H32V3.2H35.2V0Z" fill="black"/>
<path d="M38.4 19.2V16H35.2V12.8H32V16H25.6V12.8H22.4V16V19.2H25.6V25.6H16V22.4H12.8V25.6H3.2V28.8H9.6V32H0V35.2H9.6V38.4H12.8V35.2H16V38.4H19.2V35.2H25.6V32H22.4V28.8H25.6H28.8V32H32H35.2V28.8H32V25.6H28.8V19.2H38.4ZM19.2 32H12.8V28.8H19.2V32Z" fill="black"/>
<path d="M28.7999 51.2001V48.0001V44.8H25.5999V48.0001H22.3999V51.2001H25.5999V54.4001H22.3999V57.6001H28.7999V54.4001H31.9999V51.2001H28.7999Z" fill="black"/>
<path d="M57.6 57.5999V54.3999H54.4001V57.5999H44.8V60.7999H51.2001V63.9999H54.4001V60.7999H60.8V63.9999H64V60.7999V57.5999H57.6Z" fill="black"/>
<path d="M60.8001 44.8V48.0001H57.6001V51.2001H64.0001V48.0001V44.8H60.8001Z" fill="black"/>
</g>
<defs>
<clipPath id="clip0">
<rect width="64" height="64" fill="white"/>
</clipPath>
</defs>
</svg>
